ffmpeg started on 2026-01-18 at 20:06:48
Report written to "C:\Dev\OSPanel\domains\Java-AT\modules\ffmpeg\FFMetrics\reports\psnr_report-6.txt"
Log level: 32
Command line:
ffmpeg -hide_banner -nostdin -r 24000/1001 -i "F:\\Convert\\files\\[DC] Make Heroine ga Oosugiru - 07_Telegram_HEVC(155).mkv" -r 24000/1001 -i "F:\\Convert\\files\\[DC] Make Heroine ga Oosugiru - 07_Telegram.mp4" -lavfi "[0:v]settb=AVTB,setpts=PTS-STARTPTS,format=pix_fmts=yuv420p10le,fps=24000/1001,scale=1920:1080:flags=lanczos:param0=3:out_range=limited:out_color_matrix=bt709:out_chroma_loc=left,setsar=1/1,setdar=(1920/1080)*(1/1),colorspace=format=yuv420p10:range=tv:primaries=bt709:trc=bt709:space=bt709:fast=0[main];[1:v]settb=AVTB,setpts=PTS-STARTPTS,format=pix_fmts=yuv420p,fps=24000/1001,scale=1920:1080:flags=lanczos:param0=3:out_range=limited:out_color_matrix=bt709:out_chroma_loc=left,setsar=1.000,setdar=1.778,colorspace=format=yuv420p:range=tv:primaries=bt709:trc=bt709:space=bt709:fast=0[ref];[main][ref]psnr=eof_action=endall:stats_file='C\\:/Dev/OSPanel/domains/Java-AT/modules/ffmpeg/FFMetrics/logs/psnr_logfile-6.txt'" -f null -
Input #0, matroska,webm, from 'F:\Convert\files\[DC] Make Heroine ga Oosugiru - 07_Telegram_HEVC(155).mkv':
  Metadata:
    COMPATIBLE_BRANDS: isomiso2avc1mp41
    MAJOR_BRAND     : isom
    MINOR_VERSION   : 512
    ENCODER         : Lavf61.7.100
  Duration: 00:24:06.79, start: -0.021000, bitrate: 980 kb/s
  Stream #0:0: Video: hevc (Main 10), yuv420p10le(tv, bt709, progressive), 1920x1080 [SAR 1:1 DAR 16:9], 23.98 fps, 23.98 tbr, 1k tbn (default)
      Metadata:
        HANDLER_NAME    : VideoHandler
        VENDOR_ID       : [0][0][0][0]
        ENCODER         : Lavc61.19.100 libx265
        BPS             : 783650
        DURATION        : 00:24:06.569708333
        NUMBER_OF_FRAMES: 34683
        NUMBER_OF_BYTES : 141700590
        _STATISTICS_WRITING_APP: mkvpropedit v94.0 ('Initiate') 64-bit
        _STATISTICS_WRITING_DATE_UTC: 2026-01-17 17:11:21
        _STATISTICS_TAGS: BPS DURATION NUMBER_OF_FRAMES NUMBER_OF_BYTES
  Stream #0:1: Audio: aac (LC), 48000 Hz, stereo, fltp (default)
      Metadata:
        HANDLER_NAME    : SoundHandler
        VENDOR_ID       : [0][0][0][0]
        ENCODER         : Lavc61.19.100 aac
        BPS             : 193194
        DURATION        : 00:24:06.784000000
        NUMBER_OF_FRAMES: 67819
        NUMBER_OF_BYTES : 34938755
        _STATISTICS_WRITING_APP: mkvpropedit v94.0 ('Initiate') 64-bit
        _STATISTICS_WRITING_DATE_UTC: 2026-01-17 17:11:21
        _STATISTICS_TAGS: BPS DURATION NUMBER_OF_FRAMES NUMBER_OF_BYTES
Input #1, mov,mp4,m4a,3gp,3g2,mj2, from 'F:\Convert\files\[DC] Make Heroine ga Oosugiru - 07_Telegram.mp4':
  Metadata:
    major_brand     : isom
    minor_version   : 512
    compatible_brands: isomiso2avc1mp41
    encoder         : Lavf60.16.100
  Duration: 00:24:06.74, start: 0.000000, bitrate: 3764 kb/s
  Stream #1:0[0x1](und): Video: h264 (High) (avc1 / 0x31637661), yuv420p(tv, bt709, progressive), 1920x1080 [SAR 1:1 DAR 16:9], 3616 kb/s, 23.98 fps, 23.98 tbr, 24k tbn (default)
      Metadata:
        handler_name    : VideoHandler
        vendor_id       : [0][0][0][0]
        encoder         : Lavc60.31.102 h264_qsv
  Stream #1:1[0x2](und): Audio: aac (HE-AACv2) (mp4a / 0x6134706D), 48000 Hz, stereo, fltp, 144 kb/s (default)
      Metadata:
        handler_name    : SoundHandler
        vendor_id       : [0][0][0][0]
Stream mapping:
  Stream #0:0 (hevc) -> settb:default
  Stream #1:0 (h264) -> settb:default
  psnr:default -> Stream #0:0 (wrapped_avframe)
  Stream #0:1 -> #0:1 (aac (native) -> pcm_s16le (native))
Output #0, null, to 'pipe:':
  Metadata:
    COMPATIBLE_BRANDS: isomiso2avc1mp41
    MAJOR_BRAND     : isom
    MINOR_VERSION   : 512
    encoder         : Lavf61.7.100
  Stream #0:0: Video: wrapped_avframe, yuv420p10le(tv, bt709, progressive), 1920x1080 [SAR 1:1 DAR 16:9], q=2-31, 200 kb/s, 23.98 fps, 23.98 tbn
      Metadata:
        encoder         : Lavc61.19.100 wrapped_avframe
  Stream #0:1: Audio: pcm_s16le, 48000 Hz, stereo, s16, 1536 kb/s (default)
      Metadata:
        HANDLER_NAME    : SoundHandler
        VENDOR_ID       : [0][0][0][0]
        _STATISTICS_TAGS: BPS DURATION NUMBER_OF_FRAMES NUMBER_OF_BYTES
        BPS             : 193194
        DURATION        : 00:24:06.784000000
        NUMBER_OF_FRAMES: 67819
        NUMBER_OF_BYTES : 34938755
        _STATISTICS_WRITING_APP: mkvpropedit v94.0 ('Initiate') 64-bit
        _STATISTICS_WRITING_DATE_UTC: 2026-01-17 17:11:21
        encoder         : Lavc61.19.100 pcm_s16le
frame=  127 fps=0.0 q=-0.0 size=N/A time=00:00:05.29 bitrate=N/A speed=10.2x    frame=  327 fps=317 q=-0.0 size=N/A time=00:00:13.63 bitrate=N/A speed=13.2x    frame=  533 fps=345 q=-0.0 size=N/A time=00:00:22.23 bitrate=N/A speed=14.4x    frame=  747 fps=363 q=-0.0 size=N/A time=00:00:31.15 bitrate=N/A speed=15.2x    frame=  930 fps=361 q=-0.0 size=N/A time=00:00:38.78 bitrate=N/A speed=  15x    frame= 1086 fps=351 q=-0.0 size=N/A time=00:00:45.29 bitrate=N/A speed=14.7x    frame= 1253 fps=348 q=-0.0 size=N/A time=00:00:52.26 bitrate=N/A speed=14.5x    frame= 1416 fps=344 q=-0.0 size=N/A time=00:00:59.05 bitrate=N/A speed=14.4x    frame= 1575 fps=339 q=-0.0 size=N/A time=00:01:05.69 bitrate=N/A speed=14.1x    frame= 1735 fps=337 q=-0.0 size=N/A time=00:01:12.36 bitrate=N/A speed=  14x    frame= 1904 fps=336 q=-0.0 size=N/A time=00:01:19.41 bitrate=N/A speed=  14x    frame= 2059 fps=333 q=-0.0 size=N/A time=00:01:25.87 bitrate=N/A speed=13.9x    frame= 2189 fps=326 q=-0.0 size=N/A time=00:01:31.29 bitrate=N/A speed=13.6x    frame= 2354 fps=326 q=-0.0 size=N/A time=00:01:38.18 bitrate=N/A speed=13.6x    frame= 2486 fps=322 q=-0.0 size=N/A time=00:01:43.68 bitrate=N/A speed=13.4x    frame= 2649 fps=321 q=-0.0 size=N/A time=00:01:50.48 bitrate=N/A speed=13.4x    frame= 2840 fps=324 q=-0.0 size=N/A time=00:01:58.45 bitrate=N/A speed=13.5x    frame= 3028 fps=326 q=-0.0 size=N/A time=00:02:06.29 bitrate=N/A speed=13.6x    frame= 3232 fps=330 q=-0.0 size=N/A time=00:02:14.80 bitrate=N/A speed=13.8x    frame= 3445 fps=334 q=-0.0 size=N/A time=00:02:23.68 bitrate=N/A speed=13.9x    frame= 3664 fps=338 q=-0.0 size=N/A time=00:02:32.81 bitrate=N/A speed=14.1x    frame= 3868 fps=341 q=-0.0 size=N/A time=00:02:41.32 bitrate=N/A speed=14.2x    frame= 4070 fps=343 q=-0.0 size=N/A time=00:02:49.75 bitrate=N/A speed=14.3x    frame= 4269 fps=345 q=-0.0 size=N/A time=00:02:58.05 bitrate=N/A speed=14.4x    frame= 4475 fps=347 q=-0.0 size=N/A time=00:03:06.64 bitrate=N/A speed=14.5x    frame= 4682 fps=349 q=-0.0 size=N/A time=00:03:15.27 bitrate=N/A speed=14.6x    frame= 4879 fps=351 q=-0.0 size=N/A time=00:03:23.49 bitrate=N/A speed=14.6x    frame= 5090 fps=352 q=-0.0 size=N/A time=00:03:32.29 bitrate=N/A speed=14.7x    frame= 5296 fps=354 q=-0.0 size=N/A time=00:03:40.88 bitrate=N/A speed=14.8x    frame= 5504 fps=356 q=-0.0 size=N/A time=00:03:49.56 bitrate=N/A speed=14.8x    frame= 5721 fps=358 q=-0.0 size=N/A time=00:03:58.61 bitrate=N/A speed=14.9x    frame= 5930 fps=359 q=-0.0 size=N/A time=00:04:07.33 bitrate=N/A speed=  15x    frame= 6135 fps=361 q=-0.0 size=N/A time=00:04:15.88 bitrate=N/A speed=  15x    frame= 6338 fps=362 q=-0.0 size=N/A time=00:04:24.34 bitrate=N/A speed=15.1x    frame= 6544 fps=363 q=-0.0 size=N/A time=00:04:32.93 bitrate=N/A speed=15.1x    frame= 6751 fps=364 q=-0.0 size=N/A time=00:04:41.57 bitrate=N/A speed=15.2x    frame= 6943 fps=364 q=-0.0 size=N/A time=00:04:49.58 bitrate=N/A speed=15.2x    frame= 7125 fps=364 q=-0.0 size=N/A time=00:04:57.17 bitrate=N/A speed=15.2x    frame= 7316 fps=364 q=-0.0 size=N/A time=00:05:05.13 bitrate=N/A speed=15.2x    frame= 7484 fps=363 q=-0.0 size=N/A time=00:05:12.14 bitrate=N/A speed=15.1x    frame= 7648 fps=362 q=-0.0 size=N/A time=00:05:18.98 bitrate=N/A speed=15.1x    frame= 7803 fps=360 q=-0.0 size=N/A time=00:05:25.45 bitrate=N/A speed=  15x    frame= 7980 fps=360 q=-0.0 size=N/A time=00:05:32.83 bitrate=N/A speed=  15x    frame= 8174 fps=360 q=-0.0 size=N/A time=00:05:40.92 bitrate=N/A speed=  15x    frame= 8368 fps=361 q=-0.0 size=N/A time=00:05:49.01 bitrate=N/A speed=  15x    frame= 8545 fps=360 q=-0.0 size=N/A time=00:05:56.39 bitrate=N/A speed=  15x    frame= 8728 fps=360 q=-0.0 size=N/A time=00:06:04.03 bitrate=N/A speed=  15x    frame= 8906 fps=360 q=-0.0 size=N/A time=00:06:11.45 bitrate=N/A speed=  15x    frame= 9100 fps=360 q=-0.0 size=N/A time=00:06:19.54 bitrate=N/A speed=  15x    frame= 9294 fps=360 q=-0.0 size=N/A time=00:06:27.63 bitrate=N/A speed=  15x    frame= 9482 fps=361 q=-0.0 size=N/A time=00:06:35.47 bitrate=N/A speed=  15x    frame= 9659 fps=360 q=-0.0 size=N/A time=00:06:42.86 bitrate=N/A speed=  15x    frame= 9847 fps=360 q=-0.0 size=N/A time=00:06:50.70 bitrate=N/A speed=  15x    frame=10052 fps=361 q=-0.0 size=N/A time=00:06:59.25 bitrate=N/A speed=15.1x    frame=10254 fps=362 q=-0.0 size=N/A time=00:07:07.67 bitrate=N/A speed=15.1x    frame=10451 fps=362 q=-0.0 size=N/A time=00:07:15.89 bitrate=N/A speed=15.1x    frame=10649 fps=362 q=-0.0 size=N/A time=00:07:24.15 bitrate=N/A speed=15.1x    frame=10837 fps=362 q=-0.0 size=N/A time=00:07:31.99 bitrate=N/A speed=15.1x    frame=11021 fps=362 q=-0.0 size=N/A time=00:07:39.66 bitrate=N/A speed=15.1x    frame=11212 fps=363 q=-0.0 size=N/A time=00:07:47.63 bitrate=N/A speed=15.1x    frame=11408 fps=363 q=-0.0 size=N/A time=00:07:55.80 bitrate=N/A speed=15.1x    frame=11598 fps=363 q=-0.0 size=N/A time=00:08:03.73 bitrate=N/A speed=15.1x    frame=11788 fps=363 q=-0.0 size=N/A time=00:08:11.65 bitrate=N/A speed=15.1x    frame=11993 fps=364 q=-0.0 size=N/A time=00:08:20.20 bitrate=N/A speed=15.2x    frame=12193 fps=364 q=-0.0 size=N/A time=00:08:28.54 bitrate=N/A speed=15.2x    frame=12383 fps=364 q=-0.0 size=N/A time=00:08:36.47 bitrate=N/A speed=15.2x    frame=12578 fps=364 q=-0.0 size=N/A time=00:08:44.60 bitrate=N/A speed=15.2x    frame=12777 fps=365 q=-0.0 size=N/A time=00:08:52.90 bitrate=N/A speed=15.2x    frame=12982 fps=365 q=-0.0 size=N/A time=00:09:01.45 bitrate=N/A speed=15.2x    frame=13175 fps=365 q=-0.0 size=N/A time=00:09:09.50 bitrate=N/A speed=15.2x    frame=13375 fps=365 q=-0.0 size=N/A time=00:09:17.84 bitrate=N/A speed=15.2x    frame=13566 fps=365 q=-0.0 size=N/A time=00:09:25.81 bitrate=N/A speed=15.2x    frame=13757 fps=366 q=-0.0 size=N/A time=00:09:33.78 bitrate=N/A speed=15.2x    frame=13958 fps=366 q=-0.0 size=N/A time=00:09:42.16 bitrate=N/A speed=15.3x    frame=14137 fps=366 q=-0.0 size=N/A time=00:09:49.63 bitrate=N/A speed=15.2x    frame=14337 fps=366 q=-0.0 size=N/A time=00:09:57.97 bitrate=N/A speed=15.3x    frame=14534 fps=366 q=-0.0 size=N/A time=00:10:06.18 bitrate=N/A speed=15.3x    frame=14734 fps=366 q=-0.0 size=N/A time=00:10:14.53 bitrate=N/A speed=15.3x    frame=14930 fps=367 q=-0.0 size=N/A time=00:10:22.70 bitrate=N/A speed=15.3x    frame=15116 fps=366 q=-0.0 size=N/A time=00:10:30.46 bitrate=N/A speed=15.3x    frame=15291 fps=366 q=-0.0 size=N/A time=00:10:37.76 bitrate=N/A speed=15.3x    frame=15478 fps=366 q=-0.0 size=N/A time=00:10:45.56 bitrate=N/A speed=15.3x    frame=15679 fps=366 q=-0.0 size=N/A time=00:10:53.94 bitrate=N/A speed=15.3x    frame=15883 fps=367 q=-0.0 size=N/A time=00:11:02.45 bitrate=N/A speed=15.3x    frame=16084 fps=367 q=-0.0 size=N/A time=00:11:10.83 bitrate=N/A speed=15.3x    frame=16278 fps=367 q=-0.0 size=N/A time=00:11:18.92 bitrate=N/A speed=15.3x    frame=16468 fps=367 q=-0.0 size=N/A time=00:11:26.85 bitrate=N/A speed=15.3x    frame=16649 fps=367 q=-0.0 size=N/A time=00:11:34.40 bitrate=N/A speed=15.3x    frame=16848 fps=367 q=-0.0 size=N/A time=00:11:42.70 bitrate=N/A speed=15.3x    frame=17049 fps=367 q=-0.0 size=N/A time=00:11:51.08 bitrate=N/A speed=15.3x    frame=17260 fps=368 q=-0.0 size=N/A time=00:11:59.88 bitrate=N/A speed=15.3x    frame=17461 fps=368 q=-0.0 size=N/A time=00:12:08.26 bitrate=N/A speed=15.3x    frame=17664 fps=368 q=-0.0 size=N/A time=00:12:16.73 bitrate=N/A speed=15.4x    frame=17859 fps=368 q=-0.0 size=N/A time=00:12:24.86 bitrate=N/A speed=15.4x    frame=18058 fps=368 q=-0.0 size=N/A time=00:12:33.16 bitrate=N/A speed=15.4x    frame=18253 fps=369 q=-0.0 size=N/A time=00:12:41.30 bitrate=N/A speed=15.4x    frame=18456 fps=369 q=-0.0 size=N/A time=00:12:49.76 bitrate=N/A speed=15.4x    frame=18659 fps=369 q=-0.0 size=N/A time=00:12:58.23 bitrate=N/A speed=15.4x    frame=18861 fps=369 q=-0.0 size=N/A time=00:13:06.66 bitrate=N/A speed=15.4x    frame=19053 fps=369 q=-0.0 size=N/A time=00:13:14.66 bitrate=N/A speed=15.4x    frame=19265 fps=370 q=-0.0 size=N/A time=00:13:23.51 bitrate=N/A speed=15.4x    frame=19471 fps=370 q=-0.0 size=N/A time=00:13:32.10 bitrate=N/A speed=15.4x    frame=19666 fps=370 q=-0.0 size=N/A time=00:13:40.23 bitrate=N/A speed=15.4x    frame=19876 fps=370 q=-0.0 size=N/A time=00:13:48.99 bitrate=N/A speed=15.5x    frame=20084 fps=371 q=-0.0 size=N/A time=00:13:57.67 bitrate=N/A speed=15.5x    frame=20281 fps=371 q=-0.0 size=N/A time=00:14:05.88 bitrate=N/A speed=15.5x    frame=20459 fps=371 q=-0.0 size=N/A time=00:14:13.31 bitrate=N/A speed=15.5x    frame=20631 fps=370 q=-0.0 size=N/A time=00:14:20.48 bitrate=N/A speed=15.4x    frame=20820 fps=370 q=-0.0 size=N/A time=00:14:28.36 bitrate=N/A speed=15.4x    frame=21017 fps=370 q=-0.0 size=N/A time=00:14:36.58 bitrate=N/A speed=15.4x    frame=21210 fps=370 q=-0.0 size=N/A time=00:14:44.63 bitrate=N/A speed=15.4x    frame=21406 fps=370 q=-0.0 size=N/A time=00:14:52.80 bitrate=N/A speed=15.5x    frame=21598 fps=370 q=-0.0 size=N/A time=00:15:00.81 bitrate=N/A speed=15.5x    frame=21798 fps=371 q=-0.0 size=N/A time=00:15:09.15 bitrate=N/A speed=15.5x    frame=21997 fps=371 q=-0.0 size=N/A time=00:15:17.45 bitrate=N/A speed=15.5x    frame=22197 fps=371 q=-0.0 size=N/A time=00:15:25.79 bitrate=N/A speed=15.5x    frame=22395 fps=371 q=-0.0 size=N/A time=00:15:34.05 bitrate=N/A speed=15.5x    frame=22587 fps=371 q=-0.0 size=N/A time=00:15:42.06 bitrate=N/A speed=15.5x    frame=22776 fps=371 q=-0.0 size=N/A time=00:15:49.94 bitrate=N/A speed=15.5x    frame=22961 fps=371 q=-0.0 size=N/A time=00:15:57.66 bitrate=N/A speed=15.5x    frame=23166 fps=371 q=-0.0 size=N/A time=00:16:06.21 bitrate=N/A speed=15.5x    frame=23356 fps=371 q=-0.0 size=N/A time=00:16:14.13 bitrate=N/A speed=15.5x    frame=23551 fps=371 q=-0.0 size=N/A time=00:16:22.27 bitrate=N/A speed=15.5x    frame=23752 fps=371 q=-0.0 size=N/A time=00:16:30.65 bitrate=N/A speed=15.5x    frame=23963 fps=372 q=-0.0 size=N/A time=00:16:39.45 bitrate=N/A speed=15.5x    frame=24163 fps=372 q=-0.0 size=N/A time=00:16:47.79 bitrate=N/A speed=15.5x    frame=24364 fps=372 q=-0.0 size=N/A time=00:16:56.18 bitrate=N/A speed=15.5x    frame=24571 fps=372 q=-0.0 size=N/A time=00:17:04.81 bitrate=N/A speed=15.5x    frame=24774 fps=372 q=-0.0 size=N/A time=00:17:13.28 bitrate=N/A speed=15.5x    frame=24967 fps=372 q=-0.0 size=N/A time=00:17:21.33 bitrate=N/A speed=15.5x    frame=25161 fps=372 q=-0.0 size=N/A time=00:17:29.42 bitrate=N/A speed=15.5x    frame=25351 fps=372 q=-0.0 size=N/A time=00:17:37.34 bitrate=N/A speed=15.5x    frame=25552 fps=372 q=-0.0 size=N/A time=00:17:45.73 bitrate=N/A speed=15.5x    frame=25754 fps=373 q=-0.0 size=N/A time=00:17:54.15 bitrate=N/A speed=15.5x    frame=25961 fps=373 q=-0.0 size=N/A time=00:18:02.79 bitrate=N/A speed=15.5x    frame=26151 fps=373 q=-0.0 size=N/A time=00:18:10.71 bitrate=N/A speed=15.5x    frame=26357 fps=373 q=-0.0 size=N/A time=00:18:19.30 bitrate=N/A speed=15.6x    frame=26555 fps=373 q=-0.0 size=N/A time=00:18:27.56 bitrate=N/A speed=15.6x    frame=26761 fps=373 q=-0.0 size=N/A time=00:18:36.15 bitrate=N/A speed=15.6x    frame=26956 fps=373 q=-0.0 size=N/A time=00:18:44.28 bitrate=N/A speed=15.6x    frame=27144 fps=373 q=-0.0 size=N/A time=00:18:52.13 bitrate=N/A speed=15.6x    frame=27335 fps=373 q=-0.0 size=N/A time=00:19:00.09 bitrate=N/A speed=15.6x    frame=27533 fps=373 q=-0.0 size=N/A time=00:19:08.35 bitrate=N/A speed=15.6x    frame=27732 fps=373 q=-0.0 size=N/A time=00:19:16.65 bitrate=N/A speed=15.6x    frame=27923 fps=373 q=-0.0 size=N/A time=00:19:24.62 bitrate=N/A speed=15.6x    frame=28121 fps=373 q=-0.0 size=N/A time=00:19:32.88 bitrate=N/A speed=15.6x    frame=28321 fps=374 q=-0.0 size=N/A time=00:19:41.22 bitrate=N/A speed=15.6x    frame=28523 fps=374 q=-0.0 size=N/A time=00:19:49.64 bitrate=N/A speed=15.6x    frame=28719 fps=374 q=-0.0 size=N/A time=00:19:57.82 bitrate=N/A speed=15.6x    frame=28901 fps=374 q=-0.0 size=N/A time=00:20:05.41 bitrate=N/A speed=15.6x    frame=29074 fps=373 q=-0.0 size=N/A time=00:20:12.62 bitrate=N/A speed=15.6x    frame=29265 fps=373 q=-0.0 size=N/A time=00:20:20.59 bitrate=N/A speed=15.6x    frame=29447 fps=373 q=-0.0 size=N/A time=00:20:28.18 bitrate=N/A speed=15.6x    frame=29632 fps=373 q=-0.0 size=N/A time=00:20:35.90 bitrate=N/A speed=15.6x    frame=29815 fps=373 q=-0.0 size=N/A time=00:20:43.53 bitrate=N/A speed=15.6x    frame=29989 fps=373 q=-0.0 size=N/A time=00:20:50.79 bitrate=N/A speed=15.5x    frame=30182 fps=373 q=-0.0 size=N/A time=00:20:58.84 bitrate=N/A speed=15.5x    frame=30372 fps=373 q=-0.0 size=N/A time=00:21:06.76 bitrate=N/A speed=15.5x    frame=30542 fps=372 q=-0.0 size=N/A time=00:21:13.85 bitrate=N/A speed=15.5x    frame=30731 fps=372 q=-0.0 size=N/A time=00:21:21.73 bitrate=N/A speed=15.5x    frame=30942 fps=373 q=-0.0 size=N/A time=00:21:30.53 bitrate=N/A speed=15.5x    frame=31134 fps=373 q=-0.0 size=N/A time=00:21:38.54 bitrate=N/A speed=15.5x    frame=31326 fps=373 q=-0.0 size=N/A time=00:21:46.55 bitrate=N/A speed=15.5x    frame=31517 fps=373 q=-0.0 size=N/A time=00:21:54.52 bitrate=N/A speed=15.5x    frame=31701 fps=372 q=-0.0 size=N/A time=00:22:02.19 bitrate=N/A speed=15.5x    frame=31867 fps=372 q=-0.0 size=N/A time=00:22:09.11 bitrate=N/A speed=15.5x    frame=32028 fps=372 q=-0.0 size=N/A time=00:22:15.83 bitrate=N/A speed=15.5x    frame=32201 fps=372 q=-0.0 size=N/A time=00:22:23.05 bitrate=N/A speed=15.5x    frame=32394 fps=372 q=-0.0 size=N/A time=00:22:31.09 bitrate=N/A speed=15.5x    frame=32602 fps=372 q=-0.0 size=N/A time=00:22:39.77 bitrate=N/A speed=15.5x    frame=32756 fps=371 q=-0.0 size=N/A time=00:22:46.19 bitrate=N/A speed=15.5x    frame=32929 fps=371 q=-0.0 size=N/A time=00:22:53.41 bitrate=N/A speed=15.5x    frame=33121 fps=371 q=-0.0 size=N/A time=00:23:01.42 bitrate=N/A speed=15.5x    frame=33315 fps=371 q=-0.0 size=N/A time=00:23:09.51 bitrate=N/A speed=15.5x    frame=33490 fps=371 q=-0.0 size=N/A time=00:23:16.81 bitrate=N/A speed=15.5x    frame=33646 fps=371 q=-0.0 size=N/A time=00:23:23.31 bitrate=N/A speed=15.5x    frame=33784 fps=370 q=-0.0 size=N/A time=00:23:29.07 bitrate=N/A speed=15.4x    frame=33929 fps=370 q=-0.0 size=N/A time=00:23:35.12 bitrate=N/A speed=15.4x    frame=34103 fps=369 q=-0.0 size=N/A time=00:23:42.37 bitrate=N/A speed=15.4x    frame=34261 fps=369 q=-0.0 size=N/A time=00:23:48.96 bitrate=N/A speed=15.4x    frame=34394 fps=368 q=-0.0 size=N/A time=00:23:54.51 bitrate=N/A speed=15.4x    frame=34573 fps=368 q=-0.0 size=N/A time=00:24:01.98 bitrate=N/A speed=15.4x    [Parsed_psnr_16 @ 000001542241b200] PSNR y:48.953007 u:50.332426 v:50.383059 average:49.372693 min:38.015904 max:inf
[out#0/null @ 0000015414e53a00] video:14903KiB audio:271276KiB subtitle:0KiB other streams:0KiB global headers:0KiB muxing overhead: unknown
frame=34683 fps=368 q=-0.0 Lsize=N/A time=00:24:06.57 bitrate=N/A speed=15.4x    
